<svg xmlns="http://www.w3.org/2000/svg" viewBox="0 0 1200 675" width="1200" height="675">
<defs>
  <linearGradient id="sky" x1="0" y1="0" x2="0" y2="1">
    <stop offset="0%" stop-color="#1a1a4e"/>
    <stop offset="18%" stop-color="#2a2a8a"/>
    <stop offset="28%" stop-color="#5c3aaf"/>
    <stop offset="32%" stop-color="#8b3a10"/>
    <stop offset="38%" stop-color="#c45a00"/>
    <stop offset="46%" stop-color="#e87800"/>
    <stop offset="54%" stop-color="#f5a030"/>
    <stop offset="60%" stop-color="#facc70"/>
    <stop offset="66%" stop-color="#b8c8e0"/>
    <stop offset="78%" stop-color="#6098c8"/>
    <stop offset="88%" stop-color="#3060a8"/>
    <stop offset="100%" stop-color="#0c2850"/>
  </linearGradient>
  <linearGradient id="fog" x1="0" y1="0" x2="0" y2="1">
    <stop offset="0%" stop-color="rgba(255,255,255,0)"/>
    <stop offset="85%" stop-color="rgba(180,200,220,0.15)"/>
    <stop offset="100%" stop-color="rgba(180,200,220,0.4)"/>
  </linearGradient>
</defs>
<rect width="1200" height="675" fill="url(#sky)"/>
<g>
  <rect x="0" y="520" width="1200" height="155" fill="#7a5c3a"/>
  <rect x="0" y="516" width="1200" height="6" fill="#6fb43f"/>
  <rect x="8" y="516" width="10" height="4" fill="#8ccf5a"/>
  <rect x="40" y="516" width="8" height="3" fill="#8ccf5a"/>
  <rect x="85" y="516" width="14" height="5" fill="#8ccf5a"/>
  <rect x="180" y="460" width="80" height="60" fill="#7a5c3a"/>
  <rect x="180" y="456" width="80" height="6" fill="#6fb43f"/>
  <rect x="260" y="480" width="40" height="40" fill="#7a5c3a"/>
  <rect x="260" y="476" width="40" height="6" fill="#6fb43f"/>
  <rect x="340" y="444" width="60" height="76" fill="#7a5c3a"/>
  <rect x="340" y="440" width="60" height="6" fill="#6fb43f"/>
  <rect x="400" y="380" width="60" height="64" fill="#7a5c3a"/>
  <rect x="400" y="376" width="60" height="6" fill="#6fb43f"/>
  <rect x="480" y="420" width="80" height="100" fill="#7a5c3a"/>
  <rect x="480" y="416" width="80" height="6" fill="#6fb43f"/>
  <rect x="560" y="460" width="40" height="60" fill="#7a5c3a"/>
  <rect x="560" y="456" width="40" height="6" fill="#6fb43f"/>
  <rect x="640" y="400" width="80" height="120" fill="#7a5c3a"/>
  <rect x="640" y="396" width="80" height="6" fill="#6fb43f"/>
  <rect x="740" y="460" width="60" height="60" fill="#7a5c3a"/>
  <rect x="740" y="456" width="60" height="6" fill="#6fb43f"/>
  <rect x="830" y="420" width="70" height="100" fill="#7a5c3a"/>
  <rect x="830" y="416" width="70" height="6" fill="#6fb43f"/>
  <rect x="920" y="440" width="80" height="80" fill="#7a5c3a"/>
  <rect x="920" y="436" width="80" height="6" fill="#6fb43f"/>
  <rect x="100" y="500" width="200" height="20" fill="#7a5c3a"/>
  <rect x="100" y="496" width="200" height="6" fill="#6fb43f"/>
  <rect x="900" y="490" width="150" height="30" fill="#7a5c3a"/>
  <rect x="900" y="486" width="150" height="6" fill="#6fb43f"/>
</g>
<g>
  <rect x="195" y="476" width="10" height="44" fill="#5c3a1a"/>
  <rect x="215" y="476" width="10" height="44" fill="#5c3a1a"/>
  <rect x="235" y="476" width="10" height="44" fill="#5c3a1a"/>
  <rect x="350" y="460" width="10" height="60" fill="#5c3a1a"/>
  <rect x="370" y="460" width="10" height="60" fill="#5c3a1a"/>
  <rect x="410" y="396" width="10" height="48" fill="#5c3a1a"/>
  <rect x="430" y="396" width="10" height="48" fill="#5c3a1a"/>
  <rect x="500" y="436" width="10" height="84" fill="#5c3a1a"/>
  <rect x="520" y="436" width="10" height="84" fill="#5c3a1a"/>
  <rect x="660" y="416" width="10" height="104" fill="#5c3a1a"/>
  <rect x="690" y="416" width="10" height="104" fill="#5c3a1a"/>
  <rect x="850" y="436" width="10" height="84" fill="#5c3a1a"/>
  <rect x="940" y="456" width="10" height="64" fill="#5c3a1a"/>
</g>
<g>
  <rect x="420" y="340" width="20" height="26" fill="#5c3a1a"/>
  <rect x="416" y="338" width="28" height="6" fill="#5d8a3a"/>
  <rect x="700" y="356" width="20" height="30" fill="#5c3a1a"/>
  <rect x="696" y="354" width="28" height="6" fill="#5d8a3a"/>
</g>
<g fill="#ffcc44">
  <rect x="570" y="180" width="16" height="16"/>
  <rect x="566" y="196" width="24" height="4"/>
  <rect x="566" y="176" width="24" height="4"/>
</g>
<g opacity="0.3">
  <rect x="574" y="186" width="4" height="4" fill="#ffee88"/>
  <rect x="582" y="182" width="4" height="4" fill="#ffee88"/>
</g>
<rect width="1200" height="675" fill="url(#fog)"/>
</svg>
