<svg xmlns="http://www.w3.org/2000/svg" viewBox="0 0 16 16" shape-rendering="crispEdges">
      <!-- Background / Outline -->
      <rect x="2" y="3" width="12" height="10" fill="#5865F2"/>
      <rect x="3" y="2" width="10" height="12" fill="#5865F2"/>
      <rect x="1" y="4" width="14" height="8" fill="#5865F2"/>
      <!-- Dark border outline -->
      <rect x="2" y="2" width="12" height="1" fill="#3c45a5"/>
      <rect x="2" y="13" width="12" height="1" fill="#3c45a5"/>
      <rect x="1" y="3" width="1" height="10" fill="#3c45a5"/>
      <rect x="14" y="3" width="1" height="10" fill="#3c45a5"/>
      <!-- Controller/Clyde face cutout -->
      <rect x="4" y="5" width="2" height="3" fill="#ffffff"/>
      <rect x="10" y="5" width="2" height="3" fill="#ffffff"/>
      <rect x="4" y="6" width="8" height="3" fill="#ffffff"/>
      <rect x="5" y="9" width="6" height="2" fill="#ffffff"/>
      <!-- Eyes -->
      <rect x="5" y="6" width="2" height="2" fill="#5865F2"/>
      <rect x="9" y="6" width="2" height="2" fill="#5865F2"/>
      <!-- Pupils -->
      <rect x="5" y="6" width="1" height="1" fill="#1e2354"/>
      <rect x="9" y="6" width="1" height="1" fill="#1e2354"/>
      <!-- Bottom ears/handles -->
      <rect x="3" y="10" width="2" height="2" fill="#ffffff"/>
      <rect x="11" y="10" width="2" height="2" fill="#ffffff"/>
      <rect x="3" y="11" width="1" height="1" fill="#5865F2"/>
      <rect x="12" y="11" width="1" height="1" fill="#5865F2"/>
    </svg>