<svg xmlns="http://www.w3.org/2000/svg" viewBox="0 0 16 16" shape-rendering="crispEdges">
      <!-- Dark background -->
      <rect x="3" y="2" width="10" height="12" fill="#181717"/>
      <rect x="2" y="3" width="12" height="10" fill="#181717"/>
      <rect x="4" y="1" width="8" height="14" fill="#181717"/>
      <!-- Ears -->
      <rect x="3" y="1" width="2" height="2" fill="#181717"/>
      <rect x="11" y="1" width="2" height="2" fill="#181717"/>
      <!-- White Octocat Face/Silhouette -->
      <rect x="4" y="5" width="8" height="6" fill="#f0f6fc"/>
      <rect x="5" y="4" width="6" height="8" fill="#f0f6fc"/>
      <!-- Eyes & nose -->
      <rect x="5" y="6" width="2" height="2" fill="#181717"/>
      <rect x="9" y="6" width="2" height="2" fill="#181717"/>
      <rect x="7" y="8" width="2" height="1" fill="#181717"/>
      <!-- Inner ear shadows -->
      <rect x="3" y="2" width="1" height="1" fill="#f0f6fc"/>
      <rect x="12" y="2" width="1" height="1" fill="#f0f6fc"/>
      <!-- Tentacle bottom -->
      <rect x="5" y="11" width="1" height="2" fill="#181717"/>
      <rect x="10" y="11" width="1" height="2" fill="#181717"/>
      <rect x="7" y="10" width="2" height="3" fill="#181717"/>
    </svg>